<svg width="138" height="35" viewBox="0 0 138 35" fill="none" xmlns="http://www.w3.org/2000/svg">
<path d="M11.424 15.192C10.9333 15.0213 10.464 14.904 10.016 14.84C9.58933 14.776 9.09867 14.744 8.544 14.744C7.11467 14.744 5.97333 15.192 5.12 16.088C4.26667 16.984 3.84 18.328 3.84 20.12C3.84 21.8693 4.29867 23.1813 5.216 24.056C6.15467 24.9307 7.27467 25.368 8.576 25.368C9.23733 25.368 9.90933 25.2613 10.592 25.048C11.2747 24.8347 11.9467 24.504 12.608 24.056L13.664 25.624C13.1307 26.008 12.6187 26.3387 12.128 26.616C11.6373 26.8933 11.0933 27.1067 10.496 27.256C9.89867 27.4053 9.152 27.48 8.256 27.48C6.89067 27.48 5.67467 27.192 4.608 26.616C3.56267 26.0187 2.74133 25.1653 2.144 24.056C1.568 22.9467 1.28 21.6347 1.28 20.12C1.28 18.52 1.6 17.176 2.24 16.088C2.90133 14.9787 3.78667 14.1467 4.896 13.592C6.00533 13.016 7.232 12.728 8.576 12.728C9.42933 12.728 10.2187 12.824 10.944 13.016C11.6693 13.1867 12.5013 13.4107 13.44 13.688L13.888 17.144L11.84 17.592L11.424 15.192ZM19.864 34.168C19.544 34.168 19.2027 34.136 18.84 34.072C18.4987 34.0293 18.136 33.944 17.752 33.816L18.136 31.896C18.4133 31.9813 18.68 32.0453 18.936 32.088C19.192 32.1307 19.4373 32.152 19.672 32.152C20.2693 32.152 20.76 32.056 21.144 31.864C21.528 31.6933 21.8693 31.3413 22.168 30.808C22.488 30.296 22.8187 29.528 23.16 28.504L27.704 15.256H25.944V13.272H32.344V15.256H30.04L24.824 29.88C24.3547 31.2453 23.704 32.3013 22.872 33.048C22.0613 33.7947 21.0587 34.168 19.864 34.168ZM23.864 29.24L17.304 15.256H15.032V13.272H21.688V15.256H19.864L24.856 26.616L23.864 29.24ZM40.535 27.48C39.4257 27.48 38.3377 27.3307 37.271 27.032C36.2257 26.7333 35.2977 26.2853 34.487 25.688V9.272L31.447 8.216L32.119 6.232L36.951 7.896V13.848C38.2737 13.144 39.511 12.792 40.663 12.792C43.0097 12.792 44.727 13.3573 45.815 14.488C46.9243 15.6187 47.479 17.3787 47.479 19.768C47.479 22.4133 46.9137 24.3653 45.783 25.624C44.6737 26.8613 42.9243 27.48 40.535 27.48ZM40.503 25.432C42.0177 25.432 43.127 24.9733 43.831 24.056C44.5563 23.1387 44.919 21.7093 44.919 19.768C44.919 18.0613 44.567 16.8133 43.863 16.024C43.1803 15.2347 42.103 14.84 40.631 14.84C39.479 14.84 38.2523 15.2347 36.951 16.024V24.632C37.8897 25.1653 39.0737 25.432 40.503 25.432ZM63.147 25.368C62.2937 26.0933 61.419 26.6267 60.523 26.968C59.6483 27.3093 58.6457 27.48 57.515 27.48C56.0217 27.48 54.7203 27.192 53.611 26.616C52.5017 26.0187 51.6377 25.176 51.019 24.088C50.4217 22.9787 50.123 21.656 50.123 20.12C50.123 18.648 50.411 17.368 50.987 16.28C51.563 15.1707 52.3737 14.3173 53.419 13.72C54.4857 13.1013 55.7123 12.792 57.099 12.792C58.4003 12.792 59.5097 13.0693 60.427 13.624C61.3443 14.1787 62.0483 14.9573 62.539 15.96C63.051 16.9413 63.307 18.1147 63.307 19.48C63.307 19.672 63.2963 19.8747 63.275 20.088C63.275 20.28 63.2643 20.4827 63.243 20.696L52.587 20.76C52.651 21.848 52.907 22.7333 53.355 23.416C53.8243 24.0987 54.411 24.6 55.115 24.92C55.8403 25.24 56.6083 25.4 57.419 25.4C58.3577 25.4 59.2003 25.272 59.947 25.016C60.6937 24.76 61.3763 24.376 61.995 23.864L63.147 25.368ZM60.843 18.744C60.8217 17.5493 60.4697 16.5893 59.787 15.864C59.1257 15.1173 58.2403 14.744 57.131 14.744C56.0003 14.744 55.0083 15.1173 54.155 15.864C53.3017 16.5893 52.7897 17.56 52.619 18.776L60.843 18.744ZM69.8888 14.296C70.6141 13.8053 71.4354 13.432 72.3528 13.176C73.2701 12.92 74.1874 12.792 75.1048 12.792C75.8728 12.792 76.2781 12.8133 76.3208 12.856L76.8648 16.216L74.7848 16.664L74.4648 14.872C73.8034 14.872 73.1208 14.968 72.4167 15.16C71.7341 15.352 71.1048 15.6187 70.5288 15.96V25.016H73.6648V27H65.3448V25.016H68.0328V15.864L64.9608 14.808L65.6328 12.824L69.8888 14.296Z" fill="white"/>
<path d="M88.5438 15.192C88.1598 15.064 87.7864 14.9787 87.4238 14.936C87.0824 14.8933 86.7304 14.872 86.3678 14.872C85.0664 14.872 84.0638 15.2987 83.3598 16.152C82.6558 17.0053 82.3038 18.2747 82.3038 19.96C82.3038 21.432 82.6878 22.584 83.4558 23.416C84.2238 24.248 85.1624 24.664 86.2718 24.664C86.9758 24.664 87.7011 24.536 88.4478 24.28C89.1944 24.0027 89.9304 23.608 90.6558 23.096L92.1278 25.272C91.5091 25.7413 90.9011 26.1573 90.3038 26.52C89.7064 26.8613 89.0771 27.128 88.4158 27.32C87.7544 27.512 87.0078 27.608 86.1758 27.608C84.6398 27.608 83.2958 27.32 82.1438 26.744C81.0131 26.1467 80.1384 25.2827 79.5198 24.152C78.9011 23 78.5918 21.6027 78.5918 19.96C78.5918 18.232 78.9011 16.7813 79.5198 15.608C80.1384 14.4347 81.0238 13.5493 82.1758 12.952C83.3278 12.3547 84.7144 12.056 86.3358 12.056C87.1678 12.056 87.9891 12.1413 88.7998 12.312C89.6318 12.4613 90.4531 12.6853 91.2638 12.984L92.0638 17.112L88.9918 17.784L88.5438 15.192ZM105.09 26.36C103.597 27.192 102.071 27.608 100.514 27.608C98.53 27.608 97.0153 27.224 95.97 26.456C94.946 25.688 94.434 24.568 94.434 23.096C94.4127 20.1307 96.3647 18.648 100.29 18.648H103.874C103.874 17.3467 103.607 16.3973 103.074 15.8C102.541 15.1813 101.847 14.872 100.994 14.872C100.525 14.872 100.077 14.904 99.65 14.968C99.2447 15.032 98.8393 15.128 98.434 15.256L98.146 16.824L95.138 16.408L95.714 13.016C96.5673 12.7173 97.4313 12.4933 98.306 12.344C99.202 12.1733 100.13 12.088 101.09 12.088C103.181 12.088 104.77 12.6427 105.858 13.752C106.967 14.84 107.522 16.4507 107.522 18.584V23.896L110.21 24.76L109.218 27.768L105.09 26.36ZM100.386 21.016C99.6607 21.016 99.106 21.1973 98.722 21.56C98.338 21.9227 98.146 22.424 98.146 23.064C98.146 24.28 98.978 24.888 100.642 24.888C101.815 24.888 102.893 24.5787 103.874 23.96V21.048L100.386 21.016ZM118.485 27.608C117.44 27.608 116.523 27.4053 115.733 27C114.965 26.5947 114.368 25.9653 113.941 25.112C113.515 24.2587 113.301 23.16 113.301 21.816V15.576H110.645V12.696H113.301V9.944L116.821 8.888V12.696H120.693V15.576H116.821V20.792C116.821 22.008 116.981 22.9573 117.301 23.64C117.643 24.3227 118.197 24.664 118.965 24.664C119.563 24.664 120.277 24.4507 121.109 24.024L121.781 26.712C121.291 26.9467 120.757 27.1493 120.181 27.32C119.627 27.512 119.061 27.608 118.485 27.608ZM132.609 15.16C132.225 15.032 131.83 14.936 131.425 14.872C131.041 14.7867 130.625 14.744 130.177 14.744C129.43 14.744 128.758 14.8827 128.161 15.16C127.585 15.4373 127.297 15.864 127.297 16.44C127.297 16.9307 127.468 17.3253 127.809 17.624C128.15 17.9227 128.812 18.136 129.793 18.264L131.713 18.552C133.377 18.7653 134.582 19.224 135.329 19.928C136.076 20.632 136.449 21.592 136.449 22.808C136.449 23.896 136.161 24.8027 135.585 25.528C135.009 26.232 134.241 26.7547 133.281 27.096C132.342 27.4373 131.308 27.608 130.177 27.608C128.982 27.608 127.905 27.48 126.945 27.224C126.006 26.9893 125.142 26.6373 124.353 26.168L123.777 22.84L126.817 22.296L127.169 24.056C127.617 24.2693 128.076 24.4293 128.545 24.536C129.014 24.6427 129.494 24.696 129.985 24.696C130.86 24.696 131.617 24.5467 132.257 24.248C132.897 23.9493 133.217 23.5013 133.217 22.904C133.217 22.456 133.057 22.0933 132.737 21.816C132.417 21.5387 131.777 21.3467 130.817 21.24L128.993 20.952C127.457 20.7173 126.252 20.2373 125.377 19.512C124.502 18.7867 124.065 17.8267 124.065 16.632C124.065 15.6933 124.321 14.8827 124.833 14.2C125.345 13.5173 126.06 12.9947 126.977 12.632C127.894 12.2693 128.94 12.088 130.113 12.088C131.116 12.088 132.044 12.2053 132.897 12.44C133.75 12.6533 134.54 13.016 135.265 13.528L135.841 16.6L133.121 17.112L132.609 15.16Z" fill="#72C3C7"/>
</svg>
